<svg xmlns="http://www.w3.org/2000/svg" viewBox="0 0 517.62 512"><defs><style>.cls-1{fill:#ff2241;}</style></defs><title>Symbol colored@2x</title><g id="Layer_2" data-name="Layer 2"><g id="Layer_1-2" data-name="Layer 1"><path class="cls-1" d="M480.91,114a246.61,246.61,0,0,1,20.15,29.27A209.5,209.5,0,0,0,480.91,114Z"/><path class="cls-1" d="M418.88,206.91c-16-41.17-46.68-75.95-88.75-92.3C370.48,131.9,402.2,166.42,418.88,206.91Z"/><path class="cls-1" d="M310.35,34.38C254.18,29.72,202,45.17,153.92,73.82A2.31,2.31,0,0,1,151.28,70C248.87-7.41,404,19.74,480.91,114c-39-49-95.4-81.38-159.58-90.54C231.49,4.58,149.86,39,94.26,105.47a2.31,2.31,0,0,1-3.65-2.81C171-12.89,352.93-27.53,457.49,67.07c-65.33-65.33-174.2-81.69-261.32-54.5l-.2.07C119,42.62,58.81,109.54,36.55,187a2.31,2.31,0,0,1-4.48-1.09c18-79.53,77.77-150.64,152.63-182.69C77,46.42,3,159.23,16.33,279.37a1.38,1.38,0,0,0,0,.2C32.72,372.11,92.62,453.76,179.73,481,76.25,459.2,10.89,355.72,0,252.24c5.45,98,65.36,190.62,157.94,234.19C284.45,540,437,471.76,479.79,347.87a2.3,2.3,0,0,1,4.4,1.34c-17.85,70.46-73.54,126.38-138.53,151.64C326.78,508.69,316,512,316,512c114.22-31,201.36-139.94,185-265.21C491.23,153.47,419.4,82.3,333.48,53.25a2.31,2.31,0,0,1,1.18-4.46C440.54,69.09,522.39,169.71,517.4,279.47,522.84,159.68,430.3,50.78,310.52,34.4ZM138.27,127.85h0c-3.95,3.81-7.79,7.76-11.39,11.93C130.41,135.66,134.26,131.71,138.27,127.85ZM388,149.31c42.42,42.43,54,100.27,42.42,158.12-7.71,42.38-30.81,69.37-61.62,96.34l-.17.14c-77.12,57.77-181.19,42.33-242.87-27.06C91,334.43,75.6,280.44,87.17,222.59a172.76,172.76,0,0,1,34.34-76.19C102.81,170.74,92,199,87.17,230.3c-11.56,77.08,26.94,154.16,96.27,188.9a1.78,1.78,0,0,0,.29.12c42.36,15.38,88.54,23.06,134.74,7.69l.18-.06c57.81-23.16,104-73.27,111.75-134.95a179.29,179.29,0,0,0,.87-23.74c-.64,65.59-41.21,122.81-101.14,151-37.66,17.12-79.1,17.49-116.94,5.56a161.82,161.82,0,0,1-56.6-28.7c-2.32-1.85-4.52-3.79-6.71-5.72a176.24,176.24,0,0,1-47.28-59.84C88.7,298.15,86,263.88,92.09,231.21c7-49.64,34.23-96.19,79.92-124.32C130.39,137,101.27,182.28,92.09,231.21c-8,56.65,10.33,117.29,57.79,159.2a189.73,189.73,0,0,0,63.31,34.42c65.92,18.57,141.26-4,183-61.92a199.65,199.65,0,0,0,15.43-24.06,2.44,2.44,0,0,0,.14-.28c18.68-46.65,22.51-100.54-.56-146.75l-.09-.17c-30.87-54-92.54-92.46-154.21-80.9-34.67,3.85-65.49,15.4-92.47,38.48l-.17.17c-46.22,46.28-61.6,119.5-30.77,177.31,34.71,57.85,100.27,92.56,169.69,69.42C376.41,376.85,415,299.72,395.69,230.3a136.34,136.34,0,0,0-70.32-81.84,101.45,101.45,0,0,1,9.88,8.14l.18.14a104,104,0,0,1,13.35,11.35q.32.24.63.51c.18.15.34.32.52.47,19.56,15.79,34.75,36.89,41.91,61.23,7.67,25.57,5.11,54.52-5.32,80.13A107.15,107.15,0,0,1,364.84,346a126.52,126.52,0,0,0,21.68-35.57c17.91-48.2,2.59-107.78-36.59-141.36-.34-.27-.67-.55-1-.84A107.13,107.13,0,0,1,367,193.09a1.74,1.74,0,0,0,.11.18,112.59,112.59,0,0,1,20.4,59.88c.06,1.44.07,2.87.06,4.3a1.09,1.09,0,0,0,0,.18,105.29,105.29,0,0,1,.38,15.09C384.12,346,310.85,400,237.58,388.42c-54-7.71-92.51-50.09-104.11-104,0-.07,0-.13,0-.2-7.67-50.09,7.76-96.33,46.3-131a142.26,142.26,0,0,1,150.4-19.28c46.28,23.14,81,69.42,81,123.41-3.86-57.85-38.57-104.13-88.7-123.41-38.57-15.43-88.7-15.43-123.41,11.57,57.85-38.57,138.83-19.28,181.26,34.71,34.7,46.27,34.7,104.12,15.42,150.4C361,403.81,272.36,430.81,199.11,400l-.2-.09c-30.81-15.43-57.76-38.55-73.17-69.37-38.57-77.13-11.57-169.69,65.56-212.11C256.86,83.75,334,99.18,388,149.31Z"/></g></g></svg>